<svg id="Layer_1" data-name="Layer 1" xmlns="http://www.w3.org/2000/svg" viewBox="0 0 476.41 285.96"><defs><style>.cls-1{fill:#8d8d8d;}.cls-2{fill:#e4d91b;}.cls-3{fill:#ef8243;}.cls-4{fill:#231f20;}.cls-5{fill:#4a494a;}.cls-6{fill:#a8dff7;}.cls-7{fill:none;}.cls-8{fill:#ef3b25;}.cls-9{fill:#feda00;}.cls-10{fill:#488fcd;}.cls-11{fill:#f8971d;}.cls-12{fill:#fff;}</style></defs><path class="cls-1" d="M113.39,372.69c-26,3.3-49.22,13.55-45.12,22.32,4,8.55,30.4,8,40.11,17.28,12.8,12.26-24.66,21.33-11,28.61,9,4.8,30.84,3.81,89.24,4.71,110,1.71,134.6,6.81,161.45,0s11.7-14.35,38.11-20.74c44.72-10.82,110.1,5.51,143.4-4.4,20.69-6.16,16.37-18.69,6-26.09-12.87-9.21-38.79-13.15-70.2-17.92-48.49-7.37-58.23-3.55-123.34-11.31-42.41-5.06-50-8.08-77.22-8.18a466.36,466.36,0,0,0-72.2,5.35c-17.15,2.94-26.73,6.18-51.14,8.48C124.78,372.38,123.63,371.39,113.39,372.69Z" transform="translate(-67.79 -163.09)"/><rect class="cls-2" x="31.02" y="224.57" width="51.01" height="15.35" rx="7.67"/><rect class="cls-2" x="160.06" y="224.57" width="51.01" height="15.35" rx="7.67"/><rect class="cls-2" x="224.57" y="224.57" width="51.01" height="15.35" rx="7.67"/><rect class="cls-2" x="353.61" y="224.57" width="51.01" height="15.35" rx="7.67"/><rect class="cls-2" x="289.09" y="224.57" width="51.01" height="15.35" rx="7.67"/><rect class="cls-2" x="95.54" y="224.57" width="51.01" height="15.35" rx="7.67"/><path class="cls-3" d="M468.54,331.81a36.67,36.67,0,0,1-11.82,26.79,41.61,41.61,0,0,1-28.55,11.1h-289c-22.29,0-40.37-17-40.37-37.89A36.67,36.67,0,0,1,110.63,305a41.65,41.65,0,0,1,28.55-11.09h15.63a1,1,0,0,1,0-.1H399.32a1,1,0,0,1,0,.1h28.81C450.46,293.92,468.54,310.88,468.54,331.81Z" transform="translate(-67.79 -163.09)"/><circle class="cls-4" cx="113.43" cy="206.61" r="39.98"/><circle class="cls-4" cx="312.79" cy="206.61" r="39.98"/><circle class="cls-5" cx="113.43" cy="206.61" r="31.4"/><circle class="cls-5" cx="312.79" cy="206.61" r="31.4"/><path class="cls-6" d="M379.2,293.82H262.56V249.05H340.5C361.88,249.05,379.2,269.09,379.2,293.82Z" transform="translate(-67.79 -163.09)"/><path class="cls-3" d="M263,249.05v44.76H159c0-12.37,5.9-23.55,15.44-31.65s22.71-13.11,37.27-13.11Z" transform="translate(-67.79 -163.09)"/><line class="cls-7" x1="336.06" y1="130.72" x2="86.07" y2="130.72"/><path class="cls-8" d="M109.94,305.53a38,38,0,0,1,21.92-10.8v19.75H103.3A37.91,37.91,0,0,1,109.94,305.53Z" transform="translate(-67.79 -163.09)"/><path class="cls-9" d="M463.49,313.88H429.67V293.81H430A37.93,37.93,0,0,1,463.49,313.88Z" transform="translate(-67.79 -163.09)"/><line class="cls-7" x1="354.94" y1="20.06" x2="354.94"/><line class="cls-7" x1="388.76" y1="20.06" x2="354.94" y2="20.06"/><line class="cls-7" x1="56.52" y1="20.06" x2="27.96" y2="20.06"/><line class="cls-7" x1="56.52" y1="20.06" x2="56.52" y2="0.31"/><path class="cls-10" d="M541.85,227.27c0,.64,0,1.28-.05,1.92v.16a44,44,0,0,1-6.43,21L497.74,372.81,460.12,250.3a43.85,43.85,0,0,1-6.44-21v-.16c0-.64-.05-1.28-.05-1.92a44.11,44.11,0,0,1,88.22,0Z" transform="translate(-67.79 -163.09)"/><polygon class="cls-11" points="385.88 66.1 385.88 66.25 385.84 66.1 385.88 66.1"/><polygon class="cls-11" points="474.05 66.1 474.01 66.25 474.01 66.1 474.05 66.1"/><circle class="cls-12" cx="429.95" cy="64.17" r="30.65"/></svg>